<svg width="60" height="62" viewBox="0 0 60 62" fill="none" xmlns="http://www.w3.org/2000/svg">
<path d="M0 58.1366C0 59.125 3.14107 60.0729 8.73222 60.7718C14.3234 61.4707 21.9066 61.8633 29.8137 61.8633C37.7207 61.8633 45.3039 61.4707 50.8951 60.7718C56.4862 60.0729 59.6273 59.125 59.6273 58.1366C59.6273 57.1482 56.4862 56.2003 50.8951 55.5014C45.3039 54.8025 37.7207 54.4099 29.8137 54.4099C21.9066 54.4099 14.3234 54.8025 8.73222 55.5014C3.14107 56.2003 0 57.1482 0 58.1366V58.1366Z" fill="#F9FAFA"/>
<path opacity="0.5" d="M1.04346 20.3478C1.04346 20.9814 1.52793 21.4658 2.16147 21.4658C2.79501 21.4658 3.27948 20.9814 3.27948 20.3478C3.27948 19.7143 2.79501 19.2298 2.16147 19.2298C1.5652 19.2298 1.04346 19.7515 1.04346 20.3478ZM60 53.4782C58.5838 53.8509 58.2857 54.1491 57.9503 55.5279C57.5776 54.1118 57.2795 53.8136 55.9006 53.4782C57.2795 53.1056 57.6149 52.8074 57.9503 51.4286C58.2857 52.8074 58.5838 53.1428 60 53.4782ZM7.26706 16.4348C5.44097 16.9192 5.0683 17.2919 4.58383 19.118C4.09936 17.2919 3.72669 16.9192 1.9006 16.4348C3.72669 15.9503 4.09936 15.5404 4.58383 13.7515C5.03103 15.5776 5.44097 15.9503 7.26706 16.4348ZM51.9875 10.0248C50.8695 10.323 50.6459 10.5466 50.3478 11.6646C50.0497 10.5466 49.826 10.323 48.708 10.0248C49.826 9.72671 50.0497 9.5031 50.3478 8.38509C50.6087 9.5031 50.8695 9.72671 51.9875 10.0248ZM56.795 4.28571C53.8882 5.03105 53.2919 5.66459 52.5093 8.57143C51.7639 5.66459 51.1304 5.06832 48.2236 4.28571C51.1304 3.54037 51.7267 2.90683 52.5093 0C53.2546 2.86956 53.8882 3.50311 56.795 4.28571Z" fill="#91979D"/>
<path opacity="0.8" d="M23.1055 44.8322V45.1303L25.5651 47.4036L34.9937 42.8198L26.4595 48.298V50.9812L27.8384 49.6396V49.6024V49.6396L29.2173 50.9812L36.5216 42.0372V41.739L23.1055 44.8322Z" fill="#E0E4E8"/>
<path d="M55.1557 33.0931V33.0185C55.1557 32.944 55.1184 32.9067 55.1184 32.8322V32.7949L47.106 11.8881C45.9507 8.34774 42.6712 5.96265 38.9445 5.96265H20.7209C16.9942 5.96265 13.7147 8.34774 12.5595 11.8881L4.54703 32.7949V32.8322C4.50977 32.9067 4.50977 32.944 4.50977 33.0185V48.0744C4.50977 52.8074 8.34827 56.6459 13.0812 56.6459H46.6216C51.3545 56.6459 55.193 52.8074 55.193 48.0744V33.1676C55.1557 33.1303 55.1557 33.1303 55.1557 33.0931V33.0931ZM14.6464 12.6707C14.6464 12.6707 14.6464 12.6335 14.6837 12.6335C15.5036 9.95022 17.9632 8.19867 20.7209 8.19867H38.9073C41.665 8.19867 44.1247 9.95022 44.9818 12.5962C44.9818 12.5962 44.9818 12.6335 45.0191 12.6335L52.4352 32.0123H35.4042C34.7706 32.0123 34.2862 32.4968 34.2862 33.1303C34.2862 35.59 32.2737 37.6024 29.8141 37.6024C27.3545 37.6024 25.3421 35.59 25.3421 33.1303C25.3421 32.4968 24.8576 32.0123 24.224 32.0123H7.23026L14.6464 12.6707ZM52.9197 48.0744C52.9197 51.5775 50.0874 54.4098 46.5843 54.4098H13.0439C9.54082 54.4098 6.70852 51.5775 6.70852 48.0744V34.2856H23.2178C23.7396 37.4533 26.4973 39.8757 29.8141 39.8757C33.1309 39.8757 35.8886 37.4533 36.4104 34.2856H52.9197V48.0744Z" fill="#E0E4E8"/>
<path d="M29.8135 35.031C28.77 35.031 27.9502 34.2111 27.9502 33.1676V29.4409H10.9937L17.1055 13.4906L17.1427 13.4161C17.6645 11.8509 19.0806 10.8074 20.7204 10.8074H38.9067C40.5464 10.8074 41.9626 11.8509 42.4843 13.4161L42.5216 13.4906L48.6334 29.4409H31.6769V33.1676C31.6769 34.2111 30.857 35.031 29.8135 35.031Z" fill="#E0E4E8"/>
</svg>
